# Blender v3.2.1 OBJ File: 'tim.blend'
# www.blender.org
mtllib tim.mtl
o texturedMesh
v -0.301825 0.401437 -0.015066
v -0.310430 0.451636 -0.024073
v -0.301002 0.550614 -0.019161
v -0.301286 0.648373 -0.024527
v -0.310993 0.719888 -0.024133
v -0.211116 0.407649 -0.089578
v -0.241272 0.407471 -0.040452
v -0.205568 0.456129 -0.074213
v -0.255701 0.454553 -0.057782
v -0.211491 0.551327 -0.091317
v -0.256593 0.551037 -0.059810
v -0.218232 0.649301 -0.094048
v -0.262958 0.648896 -0.065685
v -0.218098 0.744316 -0.097583
v -0.279018 0.757012 -0.058597
v -0.148072 0.399291 -0.102928
v -0.149899 0.406861 -0.046545
v -0.138189 0.457968 -0.095053
v -0.141423 0.551049 -0.124584
v -0.141811 0.645136 -0.114308
v -0.148847 0.742617 -0.102003
v 0.009601 0.421103 -0.179943
v -0.036583 0.408992 -0.134852
v -0.051927 0.405942 -0.048657
v 0.000958 0.454225 -0.186807
v -0.044579 0.458245 -0.142972
v -0.006536 0.548023 -0.188228
v -0.056030 0.549545 -0.162991
v -0.000805 0.589514 -0.176316
v -0.044230 0.633863 -0.148325
v -0.077405 0.715482 -0.081276
v -0.063864 0.731394 -0.045920
v -0.206544 0.793348 -0.094171
v -0.204274 0.778897 -0.043881
v -0.150591 0.800458 -0.100804
v -0.150450 0.807646 -0.048115
v -0.121422 0.762438 -0.066451
v -0.101216 0.790576 -0.046424
v -0.294034 0.409741 0.048450
v -0.296313 0.404936 0.097484
v -0.323631 0.451061 0.049293
v -0.298848 0.451911 0.099658
v -0.317197 0.550099 0.048548
v -0.291757 0.549431 0.089897
v -0.313329 0.648480 0.047757
v -0.288434 0.647475 0.083950
v -0.287492 0.705683 0.044807
v -0.294992 0.702259 0.091943
v -0.246908 0.404859 0.048380
v -0.248070 0.399145 0.105542
v -0.248652 0.451007 0.126378
v -0.246910 0.549463 0.112048
v -0.245979 0.648293 0.103794
v 0.050155 0.417662 -0.034444
v -0.240938 0.743245 0.109784
v -0.151080 0.399373 0.047666
v -0.150743 0.390733 0.111716
v -0.153971 0.453050 0.102411
v -0.153363 0.549590 0.107213
v -0.153113 0.648595 0.105270
v -0.150829 0.748203 0.111238
v -0.060435 0.414026 0.035021
v -0.093242 0.407405 0.091350
v -0.034789 0.457362 0.059815
v -0.088445 0.456198 0.077308
v -0.032081 0.548432 0.070485
v -0.080000 0.549382 0.090056
v -0.047975 0.642488 0.049428
v -0.097871 0.645939 0.075817
v -0.058937 0.733890 0.035413
v -0.102320 0.744635 0.087700
v -0.012954 0.406746 -0.026558
v -0.090238 0.534350 -0.142286
v -0.149846 0.794887 0.046245
v -0.150170 0.798713 0.098677
v -0.108325 0.781342 0.041902
v -0.109116 0.785398 0.083528
v 0.004935 0.422558 -0.182060
v 0.038234 0.420969 -0.137130
v 0.047373 0.409836 -0.049982
v 0.042356 0.441845 -0.224657
v 0.065148 0.428550 -0.160733
v 0.054383 0.547528 -0.222223
v 0.053246 0.587456 -0.186791
v 0.032261 0.629202 -0.128455
v 0.041666 0.646124 -0.052465
v -0.019075 0.675060 -0.085788
v -0.016583 0.684057 -0.048864
v 0.090191 0.444142 -0.100784
v 0.087903 0.442881 -0.053206
v 0.187184 0.505065 -0.284783
v 0.148465 0.474098 -0.248754
v 0.133372 0.442989 -0.137234
v 0.134635 0.452678 -0.057607
v 0.188508 0.511758 -0.281224
v 0.151996 0.545821 -0.259936
v 0.160232 0.560701 -0.038093
v 0.151576 0.584418 -0.203421
v 0.145101 0.593259 -0.146496
v 0.125375 0.574858 -0.069246
v 0.205798 0.503996 -0.288158
v 0.237882 0.495969 -0.235152
v 0.238029 0.485131 -0.146904
v 0.248614 0.464170 -0.049599
v 0.207248 0.513763 -0.287118
v 0.252253 0.553942 -0.275203
v 0.279160 0.579959 -0.117340
v 0.243123 0.547715 -0.064138
v 0.249353 0.612460 -0.226927
v 0.254235 0.606633 -0.144421
v 0.221671 0.585107 -0.097635
v 0.281648 0.510537 -0.199666
v 0.286889 0.504510 -0.149033
v 0.293147 0.498289 -0.096406
v 0.310075 0.549960 -0.220203
v 0.308856 0.556377 -0.143507
v 0.289252 0.527261 -0.100116
v 0.294843 0.596382 -0.207686
v 0.295577 0.596636 -0.172076
v 0.042823 0.421049 -0.004374
v 0.049759 0.450209 0.046731
v 0.041144 0.547133 0.039639
v 0.023963 0.625045 0.000241
v -0.030076 0.677560 -0.010089
v 0.086145 0.435846 -0.019942
v 0.143673 0.445243 0.021619
v 0.136322 0.541243 0.001607
v 0.089460 0.581380 -0.019998
v 0.194798 0.490088 -0.014197
v 0.192328 0.506520 -0.019856
vn -0.6297 -0.0744 -0.7732
vn -0.4107 -0.3276 -0.8509
vn -0.4455 -0.1046 -0.8891
vn -0.6004 0.0380 -0.7988
vn -0.5527 -0.0735 -0.8301
vn -0.7013 -0.0646 -0.7100
vn -0.5396 -0.0276 -0.8415
vn -0.7120 -0.0730 -0.6983
vn -0.0511 -0.9972 0.0544
vn -0.2351 0.2382 -0.9423
vn -0.3531 -0.2411 -0.9040
vn -0.3425 0.0242 -0.9392
vn -0.1654 0.0390 -0.9855
vn 0.0479 -0.9981 0.0374
vn -0.6599 -0.2614 -0.7044
vn -0.3629 0.0042 -0.9318
vn -0.5869 -0.1522 -0.7952
vn -0.4201 -0.2666 -0.8674
vn -0.3896 0.2420 -0.8886
vn -0.3546 0.1517 -0.9226
vn 0.0212 0.4090 -0.9123
vn -0.5509 0.7590 -0.3470
vn -0.0900 0.0512 -0.9946
vn -0.3030 0.9501 0.0741
vn 0.6204 0.3761 -0.6882
vn 0.5151 0.4898 -0.7034
vn 0.6417 0.6038 -0.4729
vn -0.9223 -0.3863 -0.0146
vn -0.9196 -0.3413 0.1946
vn -0.9758 0.0824 -0.2027
vn -0.8739 0.0857 0.4784
vn -0.9802 0.0117 -0.1977
vn -0.8373 0.0493 0.5446
vn -0.9877 0.1256 0.0927
vn -0.9651 0.1567 0.2098
vn 0.0194 -0.9991 0.0371
vn -0.1022 -0.9896 -0.1013
vn -0.3382 -0.2235 0.9142
vn -0.4525 0.1289 0.8824
vn -0.4329 0.0742 0.8984
vn 0.5960 0.6987 0.3957
vn 0.3356 0.6912 -0.6400
vn -0.3277 -0.0911 0.9404
vn -0.0345 -0.9978 -0.0563
vn -0.0680 -0.9907 -0.1178
vn 0.0886 -0.0971 0.9913
vn 0.1506 0.0464 0.9875
vn 0.0179 0.0514 0.9985
vn -0.0142 -0.0608 0.9980
vn 0.0732 -0.9973 0.0073
vn 0.1908 -0.9789 -0.0726
vn 0.6359 -0.2934 0.7138
vn 0.3130 0.1911 0.9303
vn 0.3397 -0.1388 0.9302
vn 0.2916 -0.1019 0.9511
vn 0.4219 0.2368 0.8752
vn 0.3409 0.1080 0.9339
vn 0.6489 0.0611 0.7584
vn 0.4500 -0.0752 0.8899
vn -0.6771 -0.4620 0.5728
vn -0.7336 -0.6146 0.2901
vn -0.8089 -0.2488 0.5327
vn 0.8808 0.3928 -0.2643
vn -0.4581 0.6225 -0.6346
vn 0.7762 0.6295 0.0350
vn 0.3204 0.9391 0.1245
vn 0.8081 0.5068 0.3002
vn 0.2921 0.9533 -0.0764
vn 0.4194 0.1909 0.8875
vn 0.1792 -0.9761 -0.1229
vn 0.0889 -0.9930 -0.0781
vn -0.7482 -0.1893 -0.6359
vn 0.1737 -0.9597 -0.2207
vn -0.5731 0.0172 -0.8193
vn -0.3046 0.4916 -0.8158
vn 0.0862 0.7368 -0.6706
vn 0.3133 0.7302 -0.6071
vn 0.5225 0.8174 -0.2427
vn 0.5759 0.7251 -0.3776
vn 0.5436 -0.8329 -0.1043
vn 0.2498 -0.9360 -0.2479
vn 0.2228 -0.9621 0.1571
vn 0.1254 -0.9899 0.0666
vn -0.6066 -0.0396 -0.7940
vn -0.2872 -0.0220 -0.9576
vn -0.1601 0.7493 -0.6426
vn 0.1077 0.9195 -0.3779
vn 0.4840 0.8741 0.0410
vn 0.2094 -0.9013 -0.3791
vn 0.3117 -0.9343 -0.1729
vn 0.2370 -0.9684 -0.0776
vn -0.2369 0.2983 -0.9246
vn 0.6734 -0.4807 -0.5616
vn -0.1934 0.4189 -0.8872
vn -0.2581 0.7045 -0.6611
vn -0.1985 0.9798 -0.0235
vn 0.2713 0.7577 0.5936
vn -0.0747 0.9580 0.2769
vn 0.1705 0.8375 0.5192
vn 0.3811 -0.9159 -0.1260
vn 0.4024 -0.8918 -0.2069
vn 0.5659 -0.6003 -0.5651
vn 0.8733 -0.4864 -0.0261
vn 0.9742 -0.2190 0.0548
vn 0.7062 0.3385 0.6218
vn 0.6495 0.1742 0.7401
vn 0.5708 0.4832 -0.6638
vn 0.9506 0.3100 -0.0143
vn 0.2903 0.9564 0.0313
vn 0.6191 0.6800 0.3929
vn 0.0843 -0.9842 0.1554
vn 0.1779 -0.7486 0.6387
vn 0.2677 -0.0099 0.9634
vn 0.4846 0.3716 0.7919
vn 0.5577 0.7228 0.4081
vn 0.8205 0.5664 0.0774
vn 0.7652 0.4271 0.4818
vn 0.5082 -0.8569 0.0860
vn 0.2269 -0.9640 -0.1387
vn 0.1528 -0.9456 0.2871
vn 0.3209 0.1578 0.9339
vn 0.3451 0.8675 0.3583
vn 0.6170 0.6658 0.4195
vn 0.4298 0.5875 0.6856
vn 0.3520 -0.8927 0.2814
vn 0.5738 0.2058 0.7927
vn 0.4296 0.5062 0.7478
vn 0.4407 0.2362 0.8660
usemtl material_1001
s off
f 9//1 8//1 6//1 7//1
f 2//2 9//2 7//2 1//2
f 11//3 10//3 8//3 9//3
f 3//4 11//4 9//4 2//4
f 13//5 12//5 10//5 11//5
f 4//6 13//6 11//6 3//6
f 15//7 14//7 12//7 13//7
f 5//8 15//8 13//8 4//8
f 17//9 7//9 6//9 16//9
f 8//10 18//10 16//10 6//10
f 10//11 19//11 18//11 8//11
f 12//12 20//12 19//12 10//12
f 14//13 21//13 20//13 12//13
f 24//14 17//14 16//14 23//14
f 26//15 25//15 22//15 23//15
f 18//16 26//16 23//16 16//16
f 28//17 27//17 25//17 26//17
f 19//18 28//18 26//18 18//18
f 30//19 29//19 27//19 28//19
f 20//20 30//20 28//20 19//20
f 21//21 31//21 30//21 20//21
f 34//22 33//22 14//22 15//22
f 33//23 35//23 21//23 14//23
f 34//24 36//24 35//24 33//24
f 35//25 37//25 31//25 21//25
f 37//26 38//26 32//26 31//26
f 36//27 38//27 37//27 35//27
f 41//28 2//28 1//28 39//28
f 42//29 41//29 39//29 40//29
f 43//30 3//30 2//30 41//30
f 44//31 43//31 41//31 42//31
f 45//32 4//32 3//32 43//32
f 46//33 45//33 43//33 44//33
f 47//34 5//34 4//34 45//34
f 48//35 47//35 45//35 46//35
f 49//36 39//36 1//36 7//36
f 50//37 40//37 39//37 49//37
f 51//38 42//38 40//38 50//38
f 52//39 44//39 42//39 51//39
f 53//40 46//40 44//40 52//40
f 47//41 54//41 15//41 5//41
f 48//42 55//42 54//42 47//42
f 55//43 48//43 46//43 53//43
f 56//44 49//44 7//44 17//44
f 57//45 50//45 49//45 56//45
f 58//46 51//46 50//46 57//46
f 59//47 52//47 51//47 58//47
f 60//48 53//48 52//48 59//48
f 61//49 55//49 53//49 60//49
f 62//50 56//50 17//50 24//50
f 63//51 57//51 56//51 62//51
f 64//52 65//52 63//52 62//52
f 65//53 58//53 57//53 63//53
f 66//54 67//54 65//54 64//54
f 67//55 59//55 58//55 65//55
f 68//56 69//56 67//56 66//56
f 69//57 60//57 59//57 67//57
f 70//58 71//58 69//58 68//58
f 71//59 61//59 60//59 69//59
f 72//60 34//60 15//60 54//60
f 73//61 72//61 54//61 55//61
f 72//62 74//62 36//62 34//62
f 73//63 75//63 74//63 72//63
f 75//64 73//64 55//64 61//64
f 38//65 76//65 70//65 32//65
f 74//66 76//66 38//66 36//66
f 76//67 77//67 71//67 70//67
f 75//68 77//68 76//68 74//68
f 77//69 75//69 61//69 71//69
f 79//70 23//70 22//70 78//70
f 80//71 24//71 23//71 79//71
f 25//72 81//72 78//72 22//72
f 81//73 82//73 79//73 78//73
f 27//74 83//74 81//74 25//74
f 29//75 84//75 83//75 27//75
f 30//76 85//76 84//76 29//76
f 31//77 87//77 85//77 30//77
f 87//78 88//78 86//78 85//78
f 32//79 88//79 87//79 31//79
f 90//80 80//80 79//80 89//80
f 93//81 82//81 81//81 92//81
f 82//82 93//82 89//82 79//82
f 93//83 94//83 90//83 89//83
f 96//84 95//84 91//84 92//84
f 83//85 96//85 92//85 81//85
f 84//86 98//86 96//86 83//86
f 85//87 99//87 98//87 84//87
f 86//88 100//88 99//88 85//88
f 102//89 92//89 91//89 101//89
f 103//90 93//90 92//90 102//90
f 104//91 94//91 93//91 103//91
f 95//92 105//92 101//92 91//92
f 105//93 106//93 102//93 101//93
f 96//94 106//94 105//94 95//94
f 98//95 109//95 106//95 96//95
f 99//96 110//96 109//96 98//96
f 110//97 111//97 108//97 107//97
f 100//98 111//98 110//98 99//98
f 111//99 100//99 97//99 108//99
f 113//100 103//100 102//100 112//100
f 114//101 104//101 103//101 113//101
f 106//102 115//102 112//102 102//102
f 115//103 116//103 113//103 112//103
f 116//104 117//104 114//104 113//104
f 108//105 117//105 116//105 107//105
f 117//106 108//106 104//106 114//106
f 109//107 118//107 115//107 106//107
f 118//108 119//108 116//108 115//108
f 110//109 119//109 118//109 109//109
f 119//110 110//110 107//110 116//110
f 120//111 62//111 24//111 80//111
f 121//112 64//112 62//112 120//112
f 122//113 66//113 64//113 121//113
f 123//114 68//114 66//114 122//114
f 88//115 124//115 123//115 86//115
f 70//116 124//116 88//116 32//116
f 124//117 70//117 68//117 123//117
f 125//118 120//118 80//118 90//118
f 94//119 126//119 125//119 90//119
f 126//120 121//120 120//120 125//120
f 127//121 122//121 121//121 126//121
f 100//122 128//122 127//122 97//122
f 123//123 128//123 100//123 86//123
f 128//124 123//124 122//124 127//124
f 129//125 126//125 94//125 104//125
f 108//126 130//126 129//126 104//126
f 127//127 130//127 108//127 97//127
f 130//128 127//128 126//128 129//128
